<svg id="Calque_1" data-name="Calque 1" xmlns="http://www.w3.org/2000/svg" viewBox="0 0 1920 745.94"><defs><style>.cls-1,.cls-2{fill:#111;}.cls-2{fill-rule:evenodd;}</style></defs><g id="SvgjsG1007"><circle class="cls-1" cx="222.8" cy="198.85" r="30.48"/><circle class="cls-1" cx="74.05" cy="198.85" r="30.48"/><circle class="cls-1" cx="371.55" cy="196.7" r="30.48"/><path class="cls-2" d="M314.87,658.71l-.78-25.52L290,628.31a72,72,0,0,0-8.22-18l12.38-21.4-18.6-17.49L254.7,585.19a71.75,71.75,0,0,0-18.17-6.78l-6.47-24.26-25.52.78-5,24.87a71.71,71.71,0,0,0-17.22,7.86l-22.07-12.77-17.49,18.6,14.15,21.34a72.34,72.34,0,0,0-6.64,17.51l-24.74,6.6.78,25.52,25,5.06a71.89,71.89,0,0,0,7.7,17.26l-12.73,22,18.6,17.5,21-13.92a72,72,0,0,0,18,7l6.45,24.18,25.52-.78,4.92-24.29a71.75,71.75,0,0,0,18.06-8l21.34,12.35,17.5-18.6L284.07,683.7a71.63,71.63,0,0,0,7.1-18.68Zm-93.38,17.94a27.68,27.68,0,1,1,26.82-28.51A27.67,27.67,0,0,1,221.49,676.65Z" transform="translate(0 -155.82)"/><path class="cls-2" d="M443.42,576.13,437,557l-19.39,1.79A57,57,0,0,0,407.31,547l4.51-19-18.07-9-12.63,15.2a56.58,56.58,0,0,0-15.3-1l-10.42-16.9-19.16,6.39,1.85,20a56.39,56.39,0,0,0-11.26,9.87l-19.62-4.65-9,18.07,15.58,13a56.87,56.87,0,0,0-1.05,14.78l-17.24,10.62,6.39,19.16L322,621.54a57.06,57.06,0,0,0,9.76,11.32l-4.65,19.56,18.07,9,12.72-15.31a57,57,0,0,0,15.25,1.17l10.38,16.85,19.16-6.4-1.79-19.52a56.71,56.71,0,0,0,11.86-10.19l19,4.5,9-18.06-14.93-12.41a56.85,56.85,0,0,0,1.14-15.77ZM376.76,611a21.89,21.89,0,1,1,13.84-27.7A21.9,21.9,0,0,1,376.76,611Z" transform="translate(0 -155.82)"/><path class="cls-2" d="M145.78,572.38l-7.64-18.7-19.23,3.06a57.06,57.06,0,0,0-11.09-11.08l3.25-19.29-18.62-7.81-11.6,16a57.1,57.1,0,0,0-15.34,0L54,518.38,35.31,526l3.15,19.82a56.43,56.43,0,0,0-10.58,10.59L8,553.09.18,571.71l16.4,11.9a56.89,56.89,0,0,0-.08,14.81L0,610.16l7.64,18.69,19.92-3.17a56.92,56.92,0,0,0,10.49,10.65l-3.34,19.83L53.33,664,65,647.86a57.08,57.08,0,0,0,15.29.17l11.47,16.12,18.69-7.64-3.08-19.36a56.85,56.85,0,0,0,11.17-10.95l19.23,3.25,7.81-18.63-15.71-11.39a56.62,56.62,0,0,0,.09-15.82ZM81.55,611.52a21.89,21.89,0,1,1,12-28.55A21.89,21.89,0,0,1,81.55,611.52Z" transform="translate(0 -155.82)"/><path class="cls-2" d="M427.51,408.24a16.88,16.88,0,0,0-16.73-14.79l-33.21,0v4.89a2.76,2.76,0,0,1-1.71,2.56l8.07,61.59L371.31,480l-12.15-17.57,7.59-61.72a2.75,2.75,0,0,1-1.46-2.43v-4.9l-37.59,0a16.88,16.88,0,0,0-16.82,15.35l-5.66,62H286.3l-7.53-60.32A16.89,16.89,0,0,0,262,395.61l-33.22,0v2.74a2.78,2.78,0,0,1-1.7,2.56l8.06,61.58L222.57,480l-12.15-17.57L218,400.74a2.78,2.78,0,0,1-1.46-2.43v-2.75l-37.58,0a16.88,16.88,0,0,0-16.83,15.35l-5.46,59.85H137.55L130,410.4a16.88,16.88,0,0,0-16.73-14.79l-33.21,0v2.73a2.76,2.76,0,0,1-1.71,2.56l8.07,61.59L73.81,480,61.66,462.46l7.59-61.72a2.77,2.77,0,0,1-1.46-2.43v-2.74l-37.58,0a16.88,16.88,0,0,0-16.83,15.34l-8,88.2H438.58Z" transform="translate(0 -155.82)"/></g><g id="SvgjsG1008"><path class="cls-1" d="M545.4,728.27,646.3,155.82h71.55l-42.93,243.3h71.56l42.93-243.3H861L760.07,728.27H688.52l47.94-271.91H664.9L617,728.27Zm286.23,0L932.52,155.82h115.92c73.71,0,90.88,45.08,75.85,131.67-14.31,78-31.48,122.36-57.24,143.83l-.72,4.29c17.18,6.44,17.18,40.07,10,123.79l-15.74,168.87H989.05L1009.8,559.4c10-85.15,0-103-21.46-103H951.13L903.19,728.27ZM961.15,399.12h44.36c25,0,36.49-25.05,52.24-111.63,9.3-56.53,2.14-74.42-19.32-74.42H994.06Zm156.7,329.15,100.9-572.45h64.4l32.2,350.63v-7.16l60.82-343.47h71.56l-100.9,572.45h-64.4l-37.92-314.84-.72,7.15-54.38,307.69Zm300.54,0,100.89-572.45h164.58l-10,57.25h-93l-32.91,186.05h78.71l-10,57.24h-78.71l-35.06,200.36h93L1583,728.27Zm257.6,0,89.45-508h-71.56l11.45-64.4H1920l-11.45,64.4H1837l-89.44,508.05Z" transform="translate(0 -155.82)"/></g><g id="SvgjsG1009"><path class="cls-1" d="M545.4,901.77l16.85-95.58h18.16c12.3,0,15.05,7.65,12.54,21.38l-.36,2.51a52.38,52.38,0,0,1-7.52,19.36l-.12.48c3.82,3.7,5.26,11,3.7,23.65l-.71,3.82c-4,16.85-9.68,24.38-22,24.38Zm21.63-55h6.21c3.35,0,6.45-3.94,8.72-16.73l.36-2.51c1.67-9.19,0-11.82-3.58-11.82h-6.22Zm-7.53,43h8.6c3.59,0,6.57-3,8.72-12.43l.72-3.82c2-14.22,0-17.2-3.58-17.2h-8.6ZM601,901.77l7.29-41.58-4.19-54h12l.72,36.8h1.19l13.62-36.8h12l-23.3,54-7.29,41.58Zm65.11,0,8.48-95.58h12.54L678,878.11h1.19L699,806.19H709.2l-5.5,71.92h1.2l16.24-71.92h12.55l-25.21,95.58H694.14l2-49.94L680.4,901.77Zm60.33,0,16.85-95.58h27.47l-1.67,9.56H753.52L748,846.81h13.15l-1.68,9.56H746.35l-5.85,33.45H756l-2.15,11.95Zm35.84,0,8.84-50.18c5.86-33.33,8.25-46.48,26.17-46.48s15.53,13.15,9.67,46.48l-8.84,50.18H786.14L791,874.29H779.09l-4.9,27.48Zm18.52-37h12L795,851.59c5.49-31.06,6.45-36.92.47-36.92s-6.93,5.86-12.42,36.92Zm29.27,37,16.84-95.58h12l-14.69,83.63h15.53l-2.15,11.95Zm41.81,0,14.94-84.83H854.83l1.91-10.75h35.84l-1.91,10.75H878.72l-14.93,84.83Zm31.07,0,16.84-95.58h12l-7.17,40.62h12l7.16-40.62h12l-16.84,95.58h-12l8-45.4H902.86l-8,45.4Zm47.78,0,16.85-95.58h12l-7.17,40.62h11.94l7.17-40.62h12l-16.85,95.58H954.59l8-45.4h-12l-8,45.4Zm47.79,0,16.85-95.58h27.47l-1.67,9.56H1005.6l-5.5,31.06h13.15l-1.68,9.56H998.43l-5.85,33.45h15.53L1006,901.77Zm35.84,0,8.84-50.18c5.86-33.33,8.25-46.48,26.17-46.48s15.53,13.15,9.67,46.48l-8.84,50.18h-11.94l4.89-27.48h-11.94l-4.9,27.48Zm18.52-37h12l2.27-13.14c5.49-31.06,6.45-36.92.47-36.92s-6.92,5.86-12.42,36.92Zm29.27,37L1079,806.19h12l-14.69,83.63h15.53l-2.15,11.95Zm41.81,0,14.94-84.83h-11.95l1.91-10.75h35.84l-1.91,10.75h-12l-14.93,84.83Zm31.07,0,16.84-95.58h12l-7.17,40.62h12l7.17-40.62h11.94l-16.84,95.58h-11.95l8-45.4h-11.94l-8,45.4Z" transform="translate(0 -155.82)"/></g></svg>